<svg width="34" height="34" viewBox="0 0 34 34" fill="none" xmlns="http://www.w3.org/2000/svg">
<path fill-rule="evenodd" clip-rule="evenodd" d="M23.1732 13.3382C23.3721 13.5374 23.4839 13.8074 23.4839 14.089C23.4839 14.3706 23.3721 14.6406 23.1732 14.8398L16.7557 21.2573L10.3382 14.8398C10.2338 14.7426 10.15 14.6253 10.092 14.4949C10.0339 14.3646 10.0027 14.2239 10.0002 14.0812C9.99764 13.9386 10.0239 13.7969 10.0773 13.6646C10.1308 13.5323 10.2103 13.4121 10.3112 13.3112C10.4121 13.2103 10.5323 13.1308 10.6646 13.0773C10.7969 13.0239 10.9386 12.9976 11.0812 13.0002C11.2239 13.0027 11.3646 13.0339 11.4949 13.092C11.6253 13.15 11.7426 13.2338 11.8398 13.3382L16.7557 18.254L21.6715 13.3382C21.8707 13.1392 22.1408 13.0274 22.4223 13.0274C22.7039 13.0274 22.9739 13.1392 23.1732 13.3382Z" fill="#4192FF"/>
</svg>
